HIERARCHY
ROOT Hips
{
    OFFSET 0.000000 0.000000 0.000000
    CHANNELS 6 Xposition Yposition Zposition Zrotation Xrotation Yrotation
        JOINT Chest
        {
            OFFSET -0.000000 29.391830 -0.000000
            CHANNELS 3 Zrotation Xrotation Yrotation
            JOINT Neck
            {
                OFFSET -0.000000 21.536943 0.000000
                CHANNELS 3 Zrotation Xrotation Yrotation
                JOINT Head
                {
                    OFFSET -0.000000 10.450000 0.000000
                    CHANNELS 3 Zrotation Xrotation Yrotation
                    End Site
                    {
                        OFFSET -0.000000 16.150003 0.000000
                    }
                }
            }
            JOINT LeftCollar
            {
                OFFSET -0.000000 21.536943 0.000000
                CHANNELS 3 Zrotation Xrotation Yrotation
                JOINT LeftShoulder
                {
                    OFFSET 19.500000 -0.000000 0.000000
                    CHANNELS 3 Zrotation Xrotation Yrotation
                    JOINT LeftElbow
                    {
                        OFFSET 20.632557 0.000000 0.000000
                        CHANNELS 3 Zrotation Xrotation Yrotation
                        JOINT LeftWrist
                        {
                            OFFSET 24.683100 0.000000 0.000000
                            CHANNELS 3 Zrotation Xrotation Yrotation
                            End Site
                            {
                                OFFSET 0.000000 -14.250000 0.000000
                            }
                        }
                    }
                }
            }
            JOINT RightCollar
            {
                OFFSET -0.000000 21.536943 0.000000
                CHANNELS 3 Zrotation Xrotation Yrotation
                JOINT RightShoulder
                {
                    OFFSET -19.500000 0.000000 0.000000
                    CHANNELS 3 Zrotation Xrotation Yrotation
                    JOINT RightElbow
                    {
                        OFFSET -20.632557 0.000000 0.000000
                        CHANNELS 3 Zrotation Xrotation Yrotation
                        JOINT RightWrist
                        {
                            OFFSET -24.683100 0.000000 0.000000
                            CHANNELS 3 Zrotation Xrotation Yrotation
                            End Site
                            {
                                OFFSET -0.000000 -14.250000 0.000000
                            }
                        }
                    }
                }
            }
        }
    JOINT LeftHip
    {
        OFFSET 11.400001 0.000000 0.000000
        CHANNELS 3 Zrotation Xrotation Yrotation
        JOINT LeftKnee
        {
            OFFSET -0.000000 -38.134491 0.000000
            CHANNELS 3 Zrotation Xrotation Yrotation
            JOINT LeftAnkle
            {
                OFFSET -0.000000 -39.452507 0.000000
                CHANNELS 3 Zrotation Xrotation Yrotation
                End Site
                {
                    OFFSET -0.000000 -4.750000 16.150003
                }
            }
        }
    }
    JOINT RightHip
    {
        OFFSET -11.400001 0.000000 0.000000
        CHANNELS 3 Zrotation Xrotation Yrotation
        JOINT RightKnee
        {
            OFFSET -0.000000 -38.134491 0.000000
            CHANNELS 3 Zrotation Xrotation Yrotation
            JOINT RightAnkle
            {
                OFFSET -0.000000 -39.452507 0.000000
                CHANNELS 3 Zrotation Xrotation Yrotation
                End Site
                {
                    OFFSET -0.000000 -4.750000 16.150003
                }
            }
        }
    }
}
MOTION
Frames:    5
Frame Time:    0.010000
-67.802948    86.244148    -8.163206    -4.241794    4.123946    19.697359    1.740768    12.881083    -2.999837    -8.850455    -1.988713    5.344261    -3.141387    -13.025187    5.111701    -16.292345    -1.833249    12.755249    -32.472061    42.946884    -41.537395    6.153760    -5.154675    -80.258865    91.386574    4.726200    18.802956    23.223158    -1.288952    -6.074882    -30.605612    62.506577    73.411850    -22.591206    -9.366395    44.600220    -115.863853    -18.053503    -25.193192    3.776515    -17.140038    3.363567    -0.245840    34.202038    -4.708636    1.458076    -10.915769    3.373020    -3.982289    -20.511965    6.548573    -4.000667    27.801798    5.067171    14.954504    -11.679018    1.057552    
-67.802948    86.244148    -8.163206    -4.241793    4.123943    19.697346    1.673681    12.931630    -2.997962    -9.276801    -2.389179    5.864707    -2.805183    -12.180462    5.762180    -16.389042    -1.937495    13.933245    -32.387894    42.731449    -41.822731    6.218141    -5.266603    -80.242355    91.305679    4.709066    18.776215    23.102577    -1.149961    -5.039592    -30.997948    62.731651    73.794548    -22.419134    -9.294797    44.793053    -115.930649    -18.003963    -25.105217    3.776523    -17.140022    3.363579    -0.245848    34.202019    -4.708581    1.458078    -10.915777    3.372979    -3.982272    -20.511967    6.548593    -4.000685    27.801804    5.067141    14.954558    -11.678960    1.057577    
-67.957481    86.349716    -7.995843    -4.122311    4.316556    19.523144    1.343038    12.637746    -2.802757    -9.236814    -2.808276    5.870049    -2.626359    -11.099475    5.841310    -15.889888    -1.896997    14.106101    -33.109398    43.196705    -41.264809    6.052234    -5.012922    -80.439102    92.433167    5.157982    19.474670    22.546562    -1.044430    -5.107944    -32.090183    62.793018    74.596176    -22.701218    -9.516352    45.026680    -117.050117    -17.561745    -25.228977    3.920457    -17.064463    3.692694    -0.380962    33.929436    -4.506751    1.227237    -10.676130    3.070055    -3.996628    -20.553879    6.893317    -3.687513    27.662083    4.213508    14.033288    -11.554015    1.484217    
-68.031570    86.387405    -7.928425    -4.080801    4.388064    19.479914    1.227969    12.519994    -2.785927    -9.189625    -2.952639    5.839112    -2.576227    -10.706620    5.834720    -15.680691    -1.902203    14.076086    -33.399406    43.403267    -40.971214    5.895245    -4.873444    -80.547272    92.904991    5.340351    19.658791    22.332691    -1.025138    -5.202563    -32.456078    62.784775    74.846306    -22.819767    -9.577543    45.127083    -117.455734    -17.384235    -25.209572    3.974953    -17.049076    3.727631    -0.463699    33.853142    -4.354508    1.134768    -10.618324    2.952442    -3.987540    -20.575293    7.115539    -3.536166    27.658379    3.779843    13.676537    -11.574883    1.656681    
-68.118057    86.420723    -7.848354    -4.031182    4.452266    19.437481    1.100241    12.403183    -2.795755    -9.152704    -3.145778    5.835094    -2.493809    -10.259820    5.862741    -15.460185    -1.892507    14.096951    -33.689426    43.606014    -40.672489    5.737498    -4.745240    -80.673309    93.426247    5.543278    19.857269    22.089731    -1.002913    -5.252133    -32.846725    62.794140    75.093384    -22.835548    -9.649413    45.340427    -117.943565    -17.166813    -25.081980    4.033327    -17.021202    3.735549    -0.559685    33.787849    -4.167613    1.024541    -10.586851    2.828660    -3.967016    -20.590355    7.432532    -3.345676    27.689154    3.237997    13.305247    -11.648851    1.846012    
